<svg width="16" height="14" viewBox="0 0 16 14" fill="none" xmlns="http://www.w3.org/2000/svg">
<path d="M16 2.03891C15.405 2.29991 14.771 2.47291 14.11 2.55691C14.79 2.15091 15.309 1.51291 15.553 0.743908C14.919 1.12191 14.219 1.38891 13.473 1.53791C12.871 0.896909 12.013 0.499908 11.077 0.499908C9.261 0.499908 7.799 1.97391 7.799 3.78091C7.799 4.04091 7.821 4.29091 7.875 4.52891C5.148 4.39591 2.735 3.08891 1.114 1.09791C0.831 1.58891 0.665 2.15091 0.665 2.75591C0.665 3.89191 1.25 4.89891 2.122 5.48191C1.595 5.47191 1.078 5.31891 0.64 5.07791C0.64 5.08791 0.64 5.10091 0.64 5.11391C0.64 6.70791 1.777 8.03191 3.268 8.33691C3.001 8.40991 2.71 8.44491 2.408 8.44491C2.198 8.44491 1.986 8.43291 1.787 8.38891C2.212 9.68791 3.418 10.6429 4.852 10.6739C3.736 11.5469 2.319 12.0729 0.785 12.0729C0.516 12.0729 0.258 12.0609 0 12.0279C1.453 12.9649 3.175 13.4999 5.032 13.4999C11.068 13.4999 14.368 8.49991 14.368 4.16591C14.368 4.02091 14.363 3.88091 14.356 3.74191C15.007 3.27991 15.554 2.70291 16 2.03891Z" fill="#F4F4FD"/>
</svg>
